<svg width="241" height="143" viewBox="0 0 241 143" fill="none" xmlns="http://www.w3.org/2000/svg">
<g clip-path="url(#clip0_15575_11826)">
<path d="M157.766 140.668V92.7891H170.78V99.8022C173.643 94.7806 178.935 91.7502 185.529 91.7502C195.68 91.7502 201.841 98.7632 201.841 110.105V140.668H188.826V112.963C188.826 106.036 186.137 102.746 180.931 102.746C174.858 102.746 170.78 107.422 170.78 114.608V140.669H157.766V140.668ZM133.691 141.881C117.9 141.881 107.402 131.491 107.402 116.859C107.402 102.227 117.553 91.5772 131.695 91.5772C144.363 91.5772 153.386 100.235 154.427 113.136L121.718 124.911C124.234 128.98 129.006 131.318 135.513 131.318C140.632 131.318 145.578 130.019 149.222 127.508V137.984C145.664 140.322 139.765 141.881 133.691 141.881H133.691ZM119.722 115.733L141.413 107.854C140.024 103.958 136.467 101.62 131.695 101.62C124.06 101.62 118.941 107.508 119.722 115.733ZM81.8423 142.054C62.6679 142.054 48.8726 128.633 48.8726 110.452C48.8726 92.2698 63.1883 78.6763 82.7098 78.6763C90.4316 78.6763 97.7198 80.6674 101.711 83.7845V95.9055C97.5465 92.0958 91.126 89.8447 84.5318 89.8447C71.0838 89.8447 62.4074 98.1567 62.4074 110.451C62.4074 122.745 70.7367 130.971 82.6229 130.971C85.6597 130.971 89.0432 130.365 91.8197 129.239V115.473H78.8056V105.083H103.62V135.04C97.98 139.456 90.2582 142.053 81.8423 142.053V142.054ZM109.157 85.5981L118.267 66.0307L99.4395 24.2985H113.582L125.208 51.052L136.747 24.2985H149.935L122.605 85.5981H109.157H109.157ZM81.0046 73.3901C65.2142 73.3901 54.7159 63.0006 54.7159 48.3685C54.7159 33.7364 64.8669 23.0869 79.0092 23.0869C91.6763 23.0869 100.7 31.7452 101.741 44.6455L69.0319 56.4205C71.5479 60.4898 76.3198 62.8273 82.8269 62.8273C87.9458 62.8273 92.8914 61.5284 96.5354 59.0176V69.4941C92.9782 71.8316 87.0784 73.3901 81.0049 73.3901H81.0046ZM67.0359 47.2426L88.7264 39.3639C87.3383 35.4676 83.7811 33.1301 79.0089 33.1301C71.3739 33.1301 66.255 39.0173 67.0359 47.2426ZM0 72.1779V11.5715H13.1878V34.3423H37.6545V11.5715H50.8426V72.1782H37.6545V45.9443H13.1878V72.1782H0V72.1779Z" fill="black"/>
<path d="M191.658 34.1136C194.39 34.1312 197.712 35.443 200.184 37.8416C200.193 37.8504 200.202 37.8591 200.211 37.8679C200.219 37.8757 200.227 37.8835 200.235 37.8913C200.242 37.8976 200.248 37.904 200.255 37.9103C202.303 39.9238 203.754 42.6902 203.777 46.0888C203.793 48.5846 203.819 52.0601 203.848 55.8169C203.858 57.0066 203.869 58.2243 203.879 59.4479C203.95 67.5163 204.023 75.8413 204.032 78.0694C204.032 78.1867 204.033 78.2871 204.033 78.3696C204.033 78.3284 204.033 78.2827 204.032 78.2328C204.03 77.7761 204.018 76.9632 203.999 75.8807C204.007 77.095 204.011 77.972 204.011 78.3907C204.011 79.8975 203.378 82.4524 200.408 83.3476C199.755 83.5443 199.067 83.6345 198.364 83.6345C195.953 83.6345 193.371 82.5764 191.481 81.13C191.481 81.13 164.967 60.8203 160.927 57.7606C158.857 56.1937 156.622 52.6917 156.673 49.6975C156.678 49.4363 156.7 49.179 156.741 48.9272C157.12 46.5938 158.467 45.3957 160.293 44.7584C160.473 44.6956 160.666 44.6284 160.87 44.5573C164.188 43.397 170.668 41.1143 176.721 38.9734C182.101 37.065 187.142 35.2698 189.324 34.4787C189.979 34.2413 190.723 34.1214 191.521 34.1138C191.566 34.1133 191.612 34.1133 191.658 34.1136Z" fill="black"/>
<path d="M217.842 31.5214C217.844 31.5214 217.846 31.5214 217.848 31.5215C217.862 31.5216 217.877 31.5218 217.892 31.5221C217.895 31.5222 217.899 31.5223 217.902 31.5224C217.914 31.5226 217.927 31.523 217.939 31.5234C217.941 31.5234 217.944 31.5235 217.947 31.5236C217.961 31.5241 217.974 31.5246 217.988 31.5252C217.99 31.5253 217.993 31.5254 217.995 31.5255C218.01 31.5262 218.025 31.527 218.04 31.5278C218.043 31.528 218.047 31.5282 218.05 31.5284C218.062 31.5291 218.073 31.5298 218.085 31.5306C218.09 31.5309 218.095 31.5312 218.1 31.5316C218.13 31.5336 218.159 31.5359 218.189 31.5386C218.196 31.5392 218.203 31.5398 218.21 31.5405C218.219 31.5413 218.229 31.5421 218.238 31.543C218.244 31.5437 218.251 31.5443 218.257 31.545C218.272 31.5464 218.286 31.5479 218.3 31.5494C218.305 31.55 218.311 31.5506 218.316 31.5512C218.328 31.5525 218.339 31.5538 218.351 31.5551C218.356 31.5557 218.361 31.5564 218.366 31.557C218.38 31.5586 218.394 31.5603 218.408 31.5621C218.411 31.5625 218.414 31.5629 218.417 31.5632C218.43 31.5649 218.442 31.5666 218.455 31.5683C218.466 31.5697 218.477 31.5713 218.489 31.5728C218.498 31.5742 218.508 31.5755 218.518 31.577C218.524 31.5778 218.53 31.5788 218.537 31.5797C218.546 31.581 218.555 31.5823 218.564 31.5837C218.582 31.5864 218.6 31.5892 218.619 31.5921C218.625 31.593 218.631 31.5939 218.637 31.5948C218.648 31.5967 218.66 31.5987 218.672 31.6006C218.675 31.6011 218.678 31.6015 218.681 31.602C218.828 31.6262 218.985 31.6556 219.153 31.6903C219.171 31.6943 236.835 35.4819 237.913 35.7008C238.806 35.8822 239.767 36.4154 240.159 37.8706C240.241 38.1725 240.298 38.5141 240.325 38.9005C240.349 39.2517 240.355 39.6348 240.339 40.0452C240.338 40.0658 240.337 40.0864 240.336 40.107C240.236 42.338 239.478 45.3875 237.372 48.4529C234.856 52.1169 219.534 74.2479 217.61 77.0238C215.879 79.5194 213.369 81.204 211.687 81.204C211.499 81.204 211.321 81.183 211.156 81.1393C209.088 80.5947 208.635 78.6991 208.644 77.3763C208.644 77.3581 208.644 77.34 208.644 77.3219C208.644 77.301 208.644 77.2801 208.645 77.2594C208.646 77.1068 208.647 76.849 208.648 76.4998C208.648 76.4359 208.648 76.369 208.648 76.2991C208.645 70.4669 208.483 45.5476 208.483 45.5458C208.483 45.5254 208.483 45.5049 208.484 45.4843C208.483 45.4663 208.483 45.4571 208.483 45.4571V45.4568C208.483 44.8187 208.548 44.0718 208.683 43.2616C208.685 43.2505 208.687 43.2394 208.689 43.2283C209.053 41.0006 209.924 38.3134 211.479 36.1062C212.351 34.8671 213.427 33.6775 214.551 32.8401C214.553 32.8384 214.556 32.8366 214.558 32.8349C214.988 32.5134 215.429 32.2437 215.874 32.0413C216.643 31.6915 217.161 31.5241 217.798 31.5213H217.798C217.804 31.5213 217.809 31.5214 217.814 31.5214L217.815 31.5213C217.824 31.5213 217.833 31.5214 217.842 31.5214Z" fill="black"/>
<path d="M188.995 0.567001C189.027 0.567192 189.059 0.567867 189.09 0.569023C189.092 0.569107 189.095 0.569206 189.097 0.569295C189.11 0.569806 189.123 0.570427 189.136 0.571106C189.139 0.57127 189.142 0.571414 189.145 0.571588C189.161 0.572434 189.176 0.573377 189.191 0.574455C189.192 0.574556 189.194 0.574685 189.195 0.574787C189.209 0.575824 189.223 0.576954 189.238 0.578197C189.24 0.578394 189.242 0.578599 189.244 0.578801C189.259 0.580166 189.274 0.581636 189.289 0.583237C189.289 0.583257 189.289 0.583277 189.29 0.583297C189.305 0.584964 189.32 0.586778 189.336 0.588699C189.337 0.588913 189.339 0.589146 189.341 0.589363C189.354 0.591075 189.368 0.592886 189.381 0.594795C189.383 0.595075 189.385 0.595325 189.387 0.59561C189.417 0.600033 189.447 0.605008 189.476 0.610457C189.477 0.610632 189.478 0.610794 189.479 0.61097C189.524 0.619294 189.568 0.628826 189.612 0.639518C189.612 0.639755 189.613 0.639974 189.614 0.640213C189.621 0.641837 189.628 0.643513 189.634 0.645192C189.635 0.64556 189.637 0.645938 189.638 0.646308C189.651 0.649708 189.664 0.653191 189.677 0.65681C189.678 0.657063 189.679 0.657341 189.68 0.657595C189.708 0.665471 189.736 0.673856 189.763 0.682763C189.765 0.683347 189.767 0.683956 189.768 0.684544C189.788 0.691098 189.808 0.697929 189.828 0.705034C189.828 0.705255 189.829 0.705477 189.829 0.705698C189.849 0.712716 189.868 0.720024 189.887 0.727577C189.888 0.72819 189.89 0.728802 189.891 0.729418C190.104 0.814803 190.294 0.933961 190.462 1.08724C190.463 1.08804 190.464 1.08884 190.465 1.08965C190.482 1.1053 190.499 1.12133 190.515 1.13769C190.516 1.13878 190.518 1.13986 190.519 1.14095C190.536 1.15835 190.554 1.17617 190.571 1.19437C190.572 1.19576 190.573 1.19719 190.575 1.19859C190.581 1.20593 190.588 1.21334 190.595 1.2208C190.597 1.22288 190.599 1.22496 190.601 1.22705C190.607 1.23459 190.614 1.24219 190.621 1.24986C190.622 1.25142 190.624 1.25298 190.625 1.25454C190.657 1.29151 190.688 1.32999 190.718 1.36997C190.721 1.37371 190.724 1.37747 190.727 1.38123C190.732 1.38775 190.736 1.39433 190.741 1.40093C190.744 1.40442 190.746 1.40792 190.749 1.41143C190.754 1.41808 190.758 1.42478 190.763 1.4315C190.766 1.43518 190.768 1.43885 190.771 1.44255C190.785 1.4628 190.799 1.48342 190.812 1.50438C190.814 1.50741 190.816 1.51046 190.818 1.5135C190.824 1.52198 190.829 1.53052 190.834 1.53912C190.836 1.54124 190.837 1.54338 190.838 1.54551C190.844 1.55445 190.849 1.56344 190.855 1.57249C190.856 1.57499 190.858 1.5775 190.859 1.58001C190.865 1.58933 190.87 1.59872 190.876 1.60816C190.877 1.61014 190.878 1.61213 190.879 1.61411C190.9 1.64945 190.92 1.68572 190.939 1.72287C190.939 1.72383 190.94 1.72478 190.94 1.72574C190.946 1.73648 190.951 1.74731 190.957 1.75821C190.958 1.76063 190.959 1.76305 190.96 1.76548C190.973 1.79049 190.985 1.81588 190.997 1.84168C191.114 2.09545 191.387 2.69057 191.759 3.50541C193.253 6.77504 196.356 13.5828 197.491 16.0717C197.659 16.4404 197.784 16.7143 197.854 16.8678L197.854 16.8677C197.864 16.8891 197.874 16.9104 197.883 16.9318C198.085 17.3901 198.203 17.8324 198.221 18.3167V18.3174C198.254 19.2523 197.912 20.3441 197.074 22.0118C196.949 22.2602 196.809 22.5118 196.654 22.7652C196.624 22.8155 196.592 22.8658 196.561 22.9162C196.546 22.9388 196.532 22.9614 196.518 22.984C196.499 23.0124 196.481 23.0409 196.463 23.0694C196.393 23.1766 196.321 23.2841 196.247 23.3916C195.557 24.3915 194.676 25.4004 193.715 26.3306C193.64 26.4031 193.564 26.4751 193.488 26.5466C193.417 26.6134 193.346 26.6798 193.274 26.7457C191.565 28.3169 189.661 29.6108 188.136 30.1673C186.168 30.8852 176.708 34.3256 169.05 37.1096C164.123 38.9007 159.943 40.4201 158.982 40.7684C158.451 40.9608 157.97 41.0452 157.541 41.0454C157.54 41.0454 157.539 41.0455 157.539 41.0455C157.538 41.0455 157.538 41.0454 157.538 41.0454C157.527 41.0454 157.516 41.0454 157.506 41.0452C157.504 41.0452 157.502 41.0452 157.5 41.0452C157.453 41.0446 157.407 41.043 157.361 41.0405C157.361 41.0405 157.36 41.0404 157.36 41.0404C157.348 41.0398 157.337 41.0391 157.326 41.0383C157.325 41.0383 157.325 41.0382 157.324 41.0382C157.281 41.0353 157.239 41.0314 157.197 41.0267C157.192 41.0261 157.186 41.0256 157.181 41.0249C157.174 41.0241 157.166 41.0232 157.159 41.0223C157.155 41.0217 157.15 41.0212 157.146 41.0207C157.12 41.0173 157.094 41.0135 157.069 41.0095C157.063 41.0085 157.057 41.0076 157.05 41.0066C157.044 41.0055 157.037 41.0044 157.031 41.0033C157.025 41.0023 157.02 41.0013 157.014 41.0003C157.007 40.999 157 40.9978 156.993 40.9965C156.986 40.9952 156.979 40.9938 156.972 40.9925C156.968 40.9916 156.963 40.9908 156.959 40.9898C156.947 40.9875 156.935 40.9851 156.924 40.9826C156.918 40.9814 156.912 40.9802 156.907 40.9789C156.901 40.9776 156.894 40.9762 156.888 40.9748C156.882 40.9734 156.876 40.972 156.87 40.9706C156.863 40.9689 156.856 40.9671 156.849 40.9654C156.844 40.9643 156.84 40.9634 156.836 40.9623C156.825 40.9596 156.815 40.9569 156.804 40.9541C156.8 40.9529 156.795 40.9517 156.791 40.9505C156.783 40.9484 156.775 40.9462 156.767 40.944C156.762 40.9427 156.757 40.9413 156.753 40.94C156.744 40.9376 156.736 40.9352 156.728 40.9327C156.725 40.9319 156.722 40.9311 156.719 40.9302C156.709 40.927 156.698 40.9238 156.688 40.9204C156.686 40.9201 156.685 40.9197 156.684 40.9193C156.66 40.9117 156.636 40.9038 156.613 40.8956C156.61 40.8947 156.608 40.8938 156.605 40.8928C156.596 40.8897 156.588 40.8866 156.579 40.8834C156.576 40.8823 156.573 40.8812 156.57 40.8801C156.56 40.8765 156.551 40.8729 156.541 40.8693C156.54 40.8686 156.538 40.8679 156.536 40.8672C156.525 40.8629 156.514 40.8586 156.503 40.8542C156.501 40.8533 156.499 40.8524 156.497 40.8516C156.487 40.8476 156.478 40.8436 156.468 40.8396C156.466 40.8389 156.465 40.8382 156.463 40.8376C156.453 40.8332 156.443 40.8288 156.433 40.8243C156.432 40.8239 156.431 40.8234 156.43 40.8229C156.396 40.8078 156.363 40.7921 156.33 40.7757C156.329 40.7752 156.328 40.7746 156.327 40.774C156.295 40.7579 156.263 40.7411 156.233 40.7237C156.231 40.7226 156.229 40.7215 156.227 40.7204C156.218 40.7151 156.208 40.7098 156.199 40.7045C156.199 40.7041 156.198 40.7037 156.197 40.7033C155.67 40.3929 155.329 39.904 155.194 39.3747C155.194 39.3734 155.194 39.3721 155.193 39.3708C155.183 39.3296 155.174 39.2882 155.166 39.2466C155.166 39.2453 155.165 39.244 155.165 39.2427C155.161 39.2222 155.158 39.2017 155.155 39.1812C155.154 39.1796 155.154 39.178 155.154 39.1764C155.153 39.168 155.151 39.1596 155.15 39.1512C155.15 39.1488 155.149 39.1465 155.149 39.1441C155.148 39.1358 155.147 39.1275 155.146 39.1192C155.146 39.1172 155.145 39.1153 155.145 39.1134C155.143 39.0936 155.14 39.0738 155.138 39.0539C155.138 39.0508 155.138 39.0476 155.138 39.0445C155.137 39.0377 155.136 39.0309 155.136 39.024C155.135 39.02 155.135 39.016 155.135 39.012C155.133 38.9925 155.132 38.9729 155.131 38.9534C155.131 38.9518 155.131 38.9502 155.131 38.9486C155.131 38.9405 155.13 38.9325 155.13 38.9245C155.13 38.9214 155.13 38.9183 155.13 38.9152C155.13 38.9081 155.129 38.9009 155.129 38.8938C155.129 38.8907 155.129 38.8876 155.129 38.8846C155.129 38.8748 155.129 38.8651 155.129 38.8553C155.129 38.8412 155.129 38.8271 155.129 38.8128C155.129 38.8073 155.129 38.8018 155.129 38.7962C155.13 38.787 155.13 38.7777 155.13 38.7684C155.13 38.7634 155.13 38.7584 155.13 38.7534C155.131 38.7443 155.131 38.7352 155.131 38.7261C155.131 38.7204 155.132 38.7147 155.132 38.709C155.132 38.699 155.133 38.689 155.133 38.679C155.133 38.6743 155.133 38.6696 155.134 38.6649C155.135 38.6355 155.137 38.6059 155.139 38.576C155.139 38.5712 155.14 38.5664 155.14 38.5616C155.141 38.551 155.142 38.5403 155.142 38.5296C155.143 38.5244 155.143 38.5192 155.144 38.5139C155.145 38.5047 155.145 38.4954 155.146 38.4861C155.147 38.4804 155.147 38.4747 155.148 38.469C155.151 38.4389 155.154 38.4085 155.157 38.3779C155.158 38.3728 155.158 38.3677 155.159 38.3626C155.16 38.3518 155.161 38.341 155.163 38.3302C155.163 38.3257 155.164 38.3213 155.164 38.3168C155.166 38.3042 155.167 38.2916 155.169 38.2789C155.17 38.2762 155.17 38.2734 155.17 38.2707C155.193 38.103 155.224 37.9296 155.263 37.7519C155.267 37.7342 155.271 37.7163 155.275 37.6985C155.278 37.6837 155.282 37.6689 155.285 37.6541C155.292 37.6244 155.3 37.5947 155.307 37.5648C155.311 37.5499 155.315 37.5349 155.318 37.5199C155.349 37.4001 155.383 37.2785 155.42 37.1557C155.425 37.1404 155.43 37.125 155.435 37.1096C155.611 36.5414 155.856 35.9472 156.154 35.3638C156.536 34.5942 157.03 33.8324 157.608 33.1418C157.628 33.1177 178.791 7.70709 180.222 5.98517C181.654 4.26244 184.522 2.0443 186.712 1.12167C187.424 0.821497 188.022 0.646229 188.528 0.595338C188.537 0.59429 188.545 0.593281 188.554 0.59229C188.559 0.591759 188.563 0.591236 188.568 0.590721C188.573 0.590181 188.577 0.589643 188.582 0.589122C188.584 0.588891 188.586 0.588655 188.589 0.588428C188.596 0.587653 188.603 0.586897 188.61 0.586164C188.616 0.585592 188.622 0.585021 188.627 0.584474C188.642 0.583061 188.656 0.581703 188.67 0.580461C188.673 0.580247 188.675 0.580065 188.678 0.579857C188.691 0.57871 188.705 0.577653 188.719 0.576658C188.723 0.576325 188.728 0.575978 188.732 0.575662C188.734 0.575542 188.736 0.575448 188.737 0.57533C188.739 0.575227 188.74 0.57513 188.742 0.575029C188.753 0.574278 188.764 0.573562 188.775 0.572916C188.778 0.572728 188.781 0.572552 188.785 0.572373C188.793 0.571911 188.801 0.571478 188.809 0.571075C188.814 0.570854 188.818 0.570615 188.823 0.570411C188.825 0.570337 188.826 0.570272 188.828 0.5702C188.834 0.569944 188.84 0.569732 188.846 0.569506C188.846 0.5695 188.846 0.56948 188.846 0.569476C188.859 0.568955 188.873 0.568478 188.886 0.568118C188.888 0.568071 188.89 0.568042 188.892 0.567997C188.894 0.567929 188.897 0.567878 188.9 0.567816C188.908 0.567627 188.916 0.567461 188.924 0.567333C188.928 0.567275 188.932 0.567228 188.935 0.567182C188.938 0.567156 188.94 0.567114 188.942 0.567092C188.949 0.567026 188.955 0.566999 188.961 0.566971C188.969 0.566938 188.977 0.566951 188.984 0.566971C188.988 0.566981 188.991 0.566981 188.995 0.567001Z" fill="black"/>
<path d="M197.255 -0.000732422C197.415 -0.000729953 197.611 0.0200258 197.853 0.0673787C199.024 0.296862 201.546 1.29371 205.864 4.4982C207.571 5.76498 211.565 8.74079 215.958 12.0142C222.622 16.9681 230.171 22.58 231.964 23.9095C232.854 24.5698 233.672 25.2461 234.393 25.897C236.204 27.5057 237.446 28.9857 237.757 29.736C237.978 30.3835 237.873 30.6223 237.634 30.9064C237.458 31.1172 237.336 31.3356 236.833 31.3356C236.766 31.3356 236.692 31.3318 236.611 31.3236C236.606 31.3226 234.264 30.874 231.344 30.1953C228.421 29.516 220.854 28.0101 217.276 27.177C213.698 26.3439 209.682 23.3452 208.265 22.2162C207.324 21.4664 205.874 20.2961 204.385 18.5074C203.83 17.7775 203.463 17.1765 202.845 15.9072C201.225 12.3687 196.603 2.06267 196.597 2.04997C196.176 1.14667 196.115 0.909285 196.352 0.572524C196.54 0.305337 196.638 -0.000732422 197.255 -0.000732422Z" fill="black"/>
</g>
<defs>
<clipPath id="clip0_15575_11826">
<rect width="240.348" height="142.054" fill="white"/>
</clipPath>
</defs>
</svg>
